<?xml version="1.0" standalone="no"?>
<!DOCTYPE svg PUBLIC "-//W3C//DTD SVG 20010904//EN"
 "http://www.w3.org/TR/2001/REC-SVG-20010904/DTD/svg10.dtd">
<svg version="1.0" xmlns="http://www.w3.org/2000/svg"
 width="976.000000pt" height="974.000000pt" viewBox="0 0 976.000000 974.000000"
 preserveAspectRatio="xMidYMid meet">

<g transform="translate(0.000000,974.000000) scale(0.100000,-0.100000)"
fill="#000000" stroke="none">
<path d="M270 4860 l0 -3170 4625 0 4625 0 0 3170 0 3170 -4625 0 -4625 0 0
-3170z m8740 0 l0 -2660 -4115 0 -4115 0 0 2660 0 2660 4115 0 4115 0 0 -2660z"/>
<path d="M1050 6340 l0 -930 980 0 980 0 0 440 0 440 450 0 450 0 0 -790 0
-790 270 0 270 0 0 -615 0 -615 -460 0 -460 0 0 295 0 295 -1240 0 -1240 0 0
-785 0 -785 1240 0 1240 0 0 440 0 440 510 0 510 0 0 28 c0 15 0 314 0 665 l0
637 390 0 390 0 0 -665 0 -665 715 0 715 0 0 -440 0 -440 980 0 980 0 0 930 0
930 -980 0 -980 0 0 -440 0 -440 -665 0 -665 0 0 615 0 615 220 0 220 0 0 790
0 790 445 0 445 0 0 -440 0 -440 980 0 980 0 0 930 0 930 -980 0 -980 0 0
-440 0 -440 -445 0 -445 0 0 440 0 440 -980 0 -980 0 0 -440 0 -440 -450 0
-450 0 0 440 0 440 -980 0 -980 0 0 -930z"/>
</g>
</svg>
