<?xml version="1.0" standalone="no"?>
<!DOCTYPE svg PUBLIC "-//W3C//DTD SVG 20010904//EN"
 "http://www.w3.org/TR/2001/REC-SVG-20010904/DTD/svg10.dtd">
<svg version="1.0" xmlns="http://www.w3.org/2000/svg"
 width="900.000000pt" height="900.000000pt" viewBox="0 0 900.000000 900.000000"
 preserveAspectRatio="xMidYMid meet">

<g transform="translate(0.000000,900.000000) scale(0.100000,-0.100000)"
fill="#000000" stroke="none">
<path d="M2695 7070 c-188 -18 -406 -105 -585 -233 -368 -265 -636 -850 -738
-1612 -51 -378 -67 -560 -59 -691 7 -114 32 -177 96 -237 54 -50 104 -71 176
-71 87 0 144 22 201 79 64 64 69 84 84 355 37 663 165 1174 373 1493 l57 88
40 -31 c22 -18 46 -30 53 -27 7 2 25 38 41 78 103 271 315 546 559 729 32 23
56 48 54 54 -8 24 -215 40 -352 26z"/>
<path d="M3605 7060 c-127 -17 -286 -68 -394 -126 -102 -55 -190 -125 -298
-238 -277 -287 -476 -740 -562 -1281 -11 -66 -22 -149 -25 -185 -3 -36 -15
-159 -26 -275 -11 -115 -21 -280 -23 -365 -2 -144 0 -159 21 -205 13 -27 37
-65 55 -84 116 -121 334 -87 407 64 18 37 24 74 31 198 43 718 182 1270 402
1599 l51 77 36 -21 c19 -12 45 -28 57 -36 21 -13 23 -12 40 30 121 302 337
602 561 779 29 23 51 46 49 53 -2 6 -24 14 -48 18 -59 9 -259 7 -334 -2z"/>
<path d="M4680 7059 c-240 -12 -431 -79 -622 -216 -381 -274 -634 -846 -740
-1673 -19 -146 -22 -224 -23 -470 l0 -295 27 -51 c67 -128 192 -163 328 -94
47 24 107 92 121 139 6 20 15 101 19 181 49 785 188 1315 430 1637 23 29 45
53 50 53 21 0 111 -159 180 -315 171 -394 253 -828 275 -1470 15 -406 72 -850
142 -1095 29 -103 38 -91 77 95 61 290 101 591 120 905 16 246 21 265 97 341
58 58 69 82 69 148 0 106 -57 459 -116 726 -74 329 -164 603 -269 819 l-53
108 52 -7 c115 -15 246 -87 355 -195 165 -163 285 -404 365 -730 34 -141 86
-458 86 -530 0 -91 54 -229 119 -303 63 -74 80 -115 90 -221 10 -102 0 -417
-21 -656 -18 -202 -14 -396 9 -490 31 -124 48 -100 109 150 57 239 67 333 69
660 2 279 5 312 25 385 27 99 71 183 117 226 33 30 35 34 29 83 -3 28 -8 98
-12 156 -7 119 -44 396 -73 545 -77 388 -202 723 -352 940 -138 200 -385 384
-617 459 -157 50 -272 64 -462 55z"/>
<path d="M1600 7041 c-243 -44 -488 -174 -645 -342 -233 -250 -432 -708 -541
-1244 -24 -117 -65 -365 -75 -455 -44 -397 -48 -496 -24 -578 45 -150 209
-234 368 -188 117 34 152 91 167 268 37 444 63 656 106 863 62 301 139 524
252 730 97 176 186 277 301 340 91 49 176 133 269 263 71 100 150 175 259 248
92 61 87 68 -67 94 -134 24 -241 24 -370 1z"/>
<path d="M3112 5653 c-30 -78 -77 -274 -104 -432 -19 -107 -22 -172 -24 -431
-3 -267 -5 -314 -23 -382 -25 -95 -61 -167 -111 -222 l-38 -41 9 -150 c30
-493 145 -993 304 -1320 87 -179 152 -274 261 -381 183 -181 408 -298 659
-346 99 -18 341 -16 440 4 91 19 236 68 310 105 167 85 350 252 469 430 207
312 359 789 427 1343 17 139 22 234 23 466 l1 290 -30 59 c-43 84 -94 118
-186 123 -60 4 -77 1 -124 -22 -68 -34 -122 -95 -139 -161 -8 -27 -17 -110
-20 -183 -22 -497 -108 -958 -239 -1277 -64 -158 -146 -302 -216 -377 l-25
-28 -28 43 c-84 124 -184 343 -246 537 -102 322 -161 710 -177 1165 -9 282
-36 588 -70 800 -31 193 -74 376 -95 399 -14 14 -29 -29 -55 -151 -57 -268
-108 -662 -123 -958 -10 -184 -21 -215 -103 -298 -57 -58 -64 -84 -55 -205 11
-136 66 -460 113 -667 74 -329 195 -686 288 -852 14 -25 25 -50 25 -56 0 -16
-100 2 -172 33 -283 119 -500 459 -608 952 -27 128 -46 250 -70 461 -17 147
-48 228 -118 308 -62 70 -83 119 -94 217 -10 94 3 452 24 677 18 188 16 354
-6 452 -22 95 -38 118 -54 76z"/>
<path d="M8350 4770 c-53 -12 -103 -36 -126 -62 -48 -52 -55 -83 -75 -317 -57
-680 -138 -1055 -300 -1390 -113 -236 -219 -369 -346 -435 -84 -44 -199 -158
-277 -274 -56 -83 -138 -162 -243 -233 -39 -27 -74 -53 -78 -59 -9 -14 25 -25
134 -44 295 -50 606 26 864 212 289 207 506 615 661 1237 34 136 89 439 101
560 4 33 10 87 15 120 16 103 32 387 26 437 -15 108 -86 204 -174 232 -61 19
-138 26 -182 16z"/>
<path d="M6363 4744 c-93 -45 -143 -133 -143 -250 0 -29 -7 -136 -15 -238 -48
-589 -170 -1054 -360 -1376 -25 -41 -53 -85 -63 -98 l-18 -24 -52 33 c-43 26
-54 30 -67 19 -8 -7 -15 -18 -15 -25 0 -19 -113 -244 -161 -322 -114 -182
-248 -337 -388 -448 -66 -52 -72 -59 -55 -69 11 -6 88 -12 175 -14 172 -4 304
15 444 65 453 163 794 635 963 1333 43 174 58 277 86 565 54 554 54 660 1 751
-67 114 -211 157 -332 98z"/>
<path d="M7303 4749 c-71 -27 -128 -93 -142 -162 -6 -29 -17 -164 -26 -302
-25 -392 -70 -671 -156 -955 -64 -215 -160 -423 -247 -537 l-24 -33 -44 32
c-27 19 -48 28 -53 22 -5 -5 -21 -40 -36 -79 -95 -254 -322 -552 -549 -721
l-79 -58 34 -15 c25 -10 79 -14 199 -15 178 0 270 15 415 69 195 74 387 209
514 362 191 230 343 559 445 963 35 139 90 450 101 570 4 36 13 119 21 185 7
66 15 197 15 291 2 157 0 177 -21 233 -27 72 -94 140 -158 159 -59 18 -150 14
-209 -9z"/>
</g>
</svg>
