<svg xmlns="http://www.w3.org/2000/svg" version="1.1" viewBox="-5.0 -10.0 110.0 110.0">
 <path d="m6.6055 17.797h6.0469v-6.3633h15.727v6.3633h43.238v-6.3633h15.727v6.3633h7.7266v70.77h-90.145v-70.77zm77.324 20.348v-3.3594h-8.8945v3.3594zm-61.73-6.1289h-3.3594v2.7695h-2.7695v3.3594h2.7695v2.7695h3.3594v-2.7695h2.7695v-3.3594h-2.7695zm30.949 15.875 2.3789-8.6133-11.898 15.984h4.1172l-3.2617 11.824 11.898-15.984h-4.1211zm-3.1484-15.484c-11.473 0-20.773 9.3008-20.773 20.773 0 18.445 22.406 27.746 35.465 14.688 13.055-13.055 3.7539-35.461-14.691-35.461zm12.312 8.4609c-10.938-10.941-29.727-3.1523-29.727 12.312 0 15.469 18.785 23.254 29.727 12.312 6.8008-6.7969 6.8008-17.824 0-24.625zm-46.297-23.07h9.0078v-3.0039h-9.0078zm58.965 0h9.0078v-3.0039h-9.0078zm-66.695 8.5703h83.43v-5.2109l-83.43 0.003906zm83.43 3.3633h-83.43v46.906h83.43zm0 50.266h-83.43v5.2109h83.43z" fill-rule="evenodd"/>
</svg>