<svg xmlns="http://www.w3.org/2000/svg" viewBox="0 0 64 64" x="0px" y="0px">
    <title>Tool, fuel, tank,oil tank, gasoline</title>
    <g data-name="Layer 3">
        <path d="M60,28a3,3,0,0,0-3-3H17V20.667l-3-4V15a2,2,0,0,0,2-2V11a2,2,0,0,0-2-2H5a2,2,0,0,0-2,2v2a2,2,0,0,0,2,2v3.333l3,4V25H7a3,3,0,0,0-3,3V38H2v2H4V51a3,3,0,0,0,3,3H57a3,3,0,0,0,3-3V40h2V38H60ZM5,11h9v2H5Zm2,6.667V15h5v2.333l3,4V25H10V21.667ZM58,51a1,1,0,0,1-1,1H7a1,1,0,0,1-1-1V28a1,1,0,0,1,1-1H57a1,1,0,0,1,1,1Z"/>
        <path d="M51.277,33.793a2.454,2.454,0,0,1-1.779-.741,4.476,4.476,0,0,0-6.052,0,2.5,2.5,0,0,1-3.551,0,4.468,4.468,0,0,0-6.048,0,2.5,2.5,0,0,1-3.549,0,4.469,4.469,0,0,0-6.049,0,2.5,2.5,0,0,1-3.55,0,4.469,4.469,0,0,0-6.048,0,2.494,2.494,0,0,1-3.546,0,4.369,4.369,0,0,0-3.022-1.179v2a2.441,2.441,0,0,1,1.772.74,4.465,4.465,0,0,0,6.046,0,2.5,2.5,0,0,1,3.548,0,4.47,4.47,0,0,0,6.05,0,2.5,2.5,0,0,1,3.549,0,4.469,4.469,0,0,0,6.049,0,2.5,2.5,0,0,1,3.548,0,4.47,4.47,0,0,0,6.049,0,2.5,2.5,0,0,1,3.556,0,4.479,4.479,0,0,0,6.055,0,2.45,2.45,0,0,1,1.778-.741v-2a4.382,4.382,0,0,0-3.026,1.178A2.454,2.454,0,0,1,51.277,33.793Z"/>
    </g>
</svg>