<svg xmlns="http://www.w3.org/2000/svg" xmlns:cc="http://creativecommons.org/ns#" xmlns:dc="http://purl.org/dc/elements/1.1/" xmlns:rdf="http://www.w3.org/1999/02/22-rdf-syntax-ns#" version="1.1" viewBox="0 0 100 100" xml:space="preserve" x="0px" y="0px"><path d="m50 9.623c-2.6188-1e-6 -4.75 2.1312-4.75 4.75v0.36133c3.1429-0.50824 6.3444-0.52705 9.5-0.074219v-0.28711c0-2.6188-2.1312-4.75-4.75-4.75zm-0.003906 7.9102c-2.0191 0.018407-4.031 0.24892-5.9824 0.6875-0.01583 0.003274-0.034951-0.001247-0.050781 0.001953-1.8889 0.43225-3.7444 1.0501-5.5352 1.875-6.0214 2.7772-12.124 9.4297-12.178 18.035v14.24c0 9.9623-3.1936 18.645-9.5 25.855l12.129 2.0938c3.0511 0.52567 5.8473 0.95693 8.4883 1.291h0.011718c1.1495 0.14567 2.2696 0.26966 3.3652 0.37891 0.036416 0.003149 0.071002 0.010471 0.10742 0.013671 0.98008 0.098162 1.9403 0.17606 2.8887 0.24414 0.1995 0.01425 0.39583 0.026393 0.59375 0.039062 0.83442 0.055421 1.6599 0.09761 2.4785 0.13086 0.17575 0.00629 0.35159 0.015184 0.52734 0.021484 1.9681 0.0648 3.9131 0.062594 5.8828-0.003906 0.16942-0.00479 0.34035-0.011278 0.50977-0.017578 0.83283-0.031666 1.6705-0.077393 2.5176-0.13281 0.18208-0.01108 0.36711-0.024439 0.55078-0.037109 0.9785-0.069667 1.9648-0.14867 2.9766-0.25 0.00955 0 0.01589-0.003906 0.02539-0.003906 1.1036-0.11083 2.232-0.23947 3.3926-0.38672h0.011719c2.6315-0.33567 5.4167-0.76303 8.4551-1.2871l12.123-2.0898c-6.5518-7.4227-9.998-16.303-9.998-25.855v-14.25c0.055417-8.7574-5.8153-15.368-11.656-18.039-1.9586-0.89458-3.99-1.5478-6.0547-1.9785-0.02058-0.0031-0.039967 0.006653-0.060547 0.001953-1.9736-0.40454-4.0004-0.59654-6.0195-0.57812zm0.27539 4.7715c3.4069 0 6.8229 0.70147 9.8906 2.1035 0.79323 0.36258 1.1435 1.3012 0.7793 2.0977-0.36417 0.7949-1.3032 1.1454-2.0996 0.78125-5.3089-2.4272-11.827-2.4336-17.1 0-2.7962 1.2904-7.5398 5.0238-7.5762 10.846-0.00475 0.87242-0.71278 1.5742-1.582 1.5742h-0.009765c-0.87558-0.006334-1.5789-0.71975-1.5742-1.5938 0.0475-7.4116 5.9407-12.099 9.416-13.701 3.0471-1.4052 6.4485-2.1074 9.8555-2.1074zm-41.287 15.818c-0.40494 0-0.8096 0.1553-1.1191 0.46484-3.4596 3.4596-5.3652 8.0632-5.3652 12.967 0 4.9036 1.9057 9.5108 5.3652 12.969 0.30875 0.30875 0.71381 0.46484 1.1191 0.46484s0.81039-0.15609 1.1191-0.46484c0.61908-0.61908 0.61908-1.6192 0-2.2383-2.8611-2.8611-4.4375-6.6724-4.4375-10.73s1.5764-7.869 4.4375-10.729c0.6175-0.61908 0.6175-1.6192 0-2.2383-0.30954-0.30954-0.7142-0.46484-1.1191-0.46484zm82.031 0c-0.40494 0-0.8096 0.1553-1.1191 0.46484-0.61908 0.61908-0.61908 1.6192 0 2.2383 2.8611 2.8611 4.4375 6.6704 4.4375 10.729s-1.5764 7.8694-4.4375 10.73c-0.61908 0.61908-0.61908 1.6192 0 2.2383 0.30875 0.30875 0.71381 0.46484 1.1191 0.46484s0.81039-0.15609 1.1191-0.46484c3.4596-3.458 5.3652-8.0652 5.3652-12.969s-1.9057-9.5072-5.3652-12.967c-0.30954-0.30954-0.7142-0.46484-1.1191-0.46484zm-75.367 3.168c-0.40494 0-0.8096 0.15335-1.1191 0.46289-5.2836 5.2836-5.2836 13.882 0 19.164 0.30875 0.31033 0.71381 0.46289 1.1191 0.46289s0.81234-0.15414 1.1211-0.46289c0.61908-0.61908 0.61908-1.6192 0-2.2383-4.0502-4.0502-4.0502-10.639 0-14.688 0.61908-0.61908 0.61908-1.6192 0-2.2383-0.30954-0.30954-0.71616-0.46289-1.1211-0.46289zm68.703 0c-0.40513 0-0.81234 0.15335-1.1211 0.46289-0.61908 0.61908-0.61908 1.6192 0 2.2383 4.0502 4.0502 4.0502 10.639 0 14.688-0.61908 0.61908-0.61908 1.6192 0 2.2383 0.30875 0.30875 0.71576 0.46289 1.1211 0.46289 0.40534 0 0.81039-0.15414 1.1191-0.46289 5.2836-5.2836 5.2836-13.882 0-19.164-0.30954-0.30954-0.714-0.46289-1.1191-0.46289zm-23.898 43.828c-3.553 0.36892-6.8677 0.55469-10.182 0.55469-3.3012 0-6.6038-0.18466-10.143-0.54883 2.4051 3.2569 6.1531 5.248 10.162 5.248 4.009 0 7.7554-1.9938 10.162-5.2539z"/></svg>