<?xml version="1.0" encoding="UTF-8"?>
<svg version="1.1" x="0px" y="0px" viewBox="0 0 700 700" xmlns="http://www.w3.org/2000/svg">
 <path d="m325.32 297.5h-220.32c-6.2539 0-12.031-3.3359-15.156-8.75s-3.125-12.086 0-17.5 8.9023-8.75 15.156-8.75h220.32l-57.75-57.574c-4.4375-4.4414-6.1719-10.91-4.5469-16.973 1.625-6.0664 6.3594-10.801 12.426-12.426 6.0625-1.625 12.531 0.10938 16.973 4.5469l87.5 87.5c1.5938 1.6641 2.8398 3.6289 3.6758 5.7773 1.75 4.2578 1.75 9.0391 0 13.297-0.83594 2.1484-2.082 4.1133-3.6758 5.7773l-87.5 87.5c-3.2852 3.3125-7.7578 5.1758-12.426 5.1758s-9.1406-1.8633-12.426-5.1758c-3.3125-3.2852-5.1758-7.7578-5.1758-12.426s1.8633-9.1406 5.1758-12.426zm217.18-262.5h-280c-13.926 0-27.277 5.5312-37.125 15.375-9.8438 9.8477-15.375 23.199-15.375 37.125v122.5c0 6.2539 3.3359 12.031 8.75 15.156s12.086 3.125 17.5 0 8.75-8.9023 8.75-15.156v-122.5c0-4.6406 1.8438-9.0938 5.125-12.375s7.7344-5.125 12.375-5.125h280c4.6406 0 9.0938 1.8438 12.375 5.125s5.125 7.7344 5.125 12.375v385c0 4.6406-1.8438 9.0938-5.125 12.375s-7.7344 5.125-12.375 5.125h-280c-4.6406 0-9.0938-1.8438-12.375-5.125s-5.125-7.7344-5.125-12.375v-122.5c0-6.2539-3.3359-12.031-8.75-15.156s-12.086-3.125-17.5 0-8.75 8.9023-8.75 15.156v122.5c0 13.926 5.5312 27.277 15.375 37.125 9.8477 9.8438 23.199 15.375 37.125 15.375h280c13.926 0 27.277-5.5312 37.125-15.375 9.8438-9.8477 15.375-23.199 15.375-37.125v-385c0-13.926-5.5312-27.277-15.375-37.125-9.8477-9.8438-23.199-15.375-37.125-15.375z"/>
</svg>
