<svg xmlns="http://www.w3.org/2000/svg" data-name="Layer 1" viewBox="0 0 100 100" x="0px" y="0px">
    <path d="M69.31,77.89h-3V60.18a2.33,2.33,0,0,0,0-.38c0-.06,0-.11-.05-.17l-.06-.19c0-.07-.07-.13-.1-.19s0-.1-.08-.14a1.76,1.76,0,0,0-.24-.3l-9.58-9.58,9.58-9.58a1.76,1.76,0,0,0,.24-.3c0-.05,0-.1.08-.14s.07-.13.1-.19l.06-.19c0-.06,0-.12.05-.17a2.58,2.58,0,0,0,0-.38V22.11h2.53a2,2,0,0,0,2-2V17.75a2,2,0,0,0-2-2H30.69a2,2,0,0,0-2,2v2.36a2,2,0,0,0,2,2h2.53V38.28a2.58,2.58,0,0,0,0,.38,1.54,1.54,0,0,0,.05.17c0,.06,0,.12.06.19s.07.12.1.19.05.09.08.14a1.76,1.76,0,0,0,.24.3l9.58,9.58-9.58,9.58a1.76,1.76,0,0,0-.24.3s0,.09-.08.14-.07.12-.1.19a1.39,1.39,0,0,0-.06.19,1.09,1.09,0,0,0-.05.17,2.33,2.33,0,0,0,0,.38V77.89h-2a2,2,0,0,0-2,2v2.36a2,2,0,0,0,2,2H69.31a2,2,0,0,0,2-2V79.89A2,2,0,0,0,69.31,77.89ZM37.09,61,47.48,50.6a2,2,0,0,0,0-2.74L37.09,37.48V22.11H62.43V37.48L52,47.86a2,2,0,0,0,0,2.74L62.43,61V77.89H60V63.23a1.89,1.89,0,0,0-.54-1.31l-8.36-8.44a1.81,1.81,0,0,0-2.58,0l-8.36,8.44a1.89,1.89,0,0,0-.54,1.31V77.89H37.09Z"/>
</svg>