<svg xmlns="http://www.w3.org/2000/svg"
    xmlns:xlink="http://www.w3.org/1999/xlink" version="1.1" x="0px" y="0px" viewBox="0 0 100 100" style="enable-background:new 0 0 100 100;" xml:space="preserve">
    <g>
        <path d="M42.9,67c-0.6,0-1.3-0.2-1.8-0.5l-5-3.2c0,0-0.1,0-0.1,0l-5,3.2c-1,0.7-2.5,0.7-3.6,0l-5.9-3.8l1.8-2.7l5.9,3.8   c0,0,0.1,0,0.1,0l5-3.2c1-0.7,2.5-0.7,3.6,0l5,3.2c0,0,0.1,0,0.1,0l5-3.2c1-0.7,2.5-0.7,3.6,0l5,3.2c0,0,0.1,0,0.1,0l5-3.2   c1-0.7,2.5-0.7,3.6,0l5,3.2c0,0,0.1,0,0.1,0l5.9-3.8l1.8,2.7l-5.9,3.8c-1,0.7-2.5,0.7-3.6,0l-5-3.2c0,0-0.1,0-0.1,0l-5,3.2   c-1,0.7-2.5,0.7-3.6,0l-5-3.2c0,0-0.1,0-0.1,0l-5,3.2C44.2,66.9,43.5,67,42.9,67z M42.9,54c-0.6,0-1.3-0.2-1.8-0.5l-5-3.2   c0,0-0.1,0-0.1,0l-5,3.2c-1,0.7-2.5,0.7-3.6,0l-5.9-3.8l1.8-2.7l5.9,3.8c0,0,0.1,0,0.1,0l5-3.2c1-0.7,2.5-0.7,3.6,0l5,3.2   c0,0,0.1,0,0.1,0l5-3.2c1-0.7,2.5-0.7,3.6,0l5,3.2c0,0,0.1,0,0.1,0l5-3.2c1-0.7,2.5-0.7,3.6,0l5,3.2c0,0,0.1,0,0.1,0l5.9-3.8   l1.8,2.7l-5.9,3.8c-1,0.7-2.5,0.7-3.6,0l-5-3.2c0,0-0.1,0-0.1,0l-5,3.2c-1,0.7-2.5,0.7-3.6,0l-5-3.2c0,0-0.1,0-0.1,0l-5,3.2   C44.2,53.8,43.5,54,42.9,54z M42.9,41c-0.6,0-1.3-0.2-1.8-0.5l-5-3.2c0,0-0.1,0-0.1,0l-5,3.2c-1,0.7-2.5,0.7-3.6,0l-5.9-3.8   l1.8-2.7l5.9,3.8c0,0,0.1,0,0.1,0l5-3.2c1-0.7,2.5-0.7,3.6,0l5,3.2c0,0,0.1,0,0.1,0l5-3.2c1-0.7,2.5-0.7,3.6,0l5,3.2   c0,0,0.1,0,0.1,0l5-3.2c1-0.7,2.5-0.7,3.6,0l5,3.2c0,0,0.1,0,0.1,0l5.9-3.8l1.8,2.7l-5.9,3.8c-1,0.7-2.5,0.7-3.6,0l-5-3.2   c0,0-0.1,0-0.1,0l-5,3.2c-1,0.7-2.5,0.7-3.6,0l-5-3.2c0,0-0.1,0-0.1,0l-5,3.2C44.2,40.9,43.5,41,42.9,41z M82,50l10-6v12L82,50z    M18,50L8,44v12L18,50z"/>
    </g>
</svg>