<svg xmlns="http://www.w3.org/2000/svg" version="1.1" viewBox="-5.0 -10.0 110.0 110.0">
 <g>
  <path d="m93.52 16.059v-7.7266c0-1.0234-0.82812-1.8516-1.8516-1.8516-1.0234 0-1.8516 0.82812-1.8516 1.8516v7.4062h-6.125l-1.4258-3.8008c-0.80859-2.1562-2.8984-3.6055-5.2031-3.6055h-15.543l-0.16406-0.49219c-1.0078-3.0273-3.832-5.0625-7.0273-5.0625h-8.6602c-3.1914 0-6.0156 2.0352-7.0273 5.0664l-0.16016 0.48828h-15.543c-2.3047 0-4.3945 1.4492-5.2031 3.6055l-1.4258 3.8047h-6.125v-7.4102c0-1.0234-0.82812-1.8516-1.8516-1.8516-1.0234 0-1.8516 0.82812-1.8516 1.8516v7.7266c-2.1562 0.76562-3.7031 2.8242-3.7031 5.2383v3.7031c0 2.4141 1.5469 4.4727 3.7031 5.2383v44.961c-2.2891 2.3398-3.7031 5.5352-3.7031 9.0586 0 7.1484 5.8164 12.965 12.965 12.965 5.8594 0 10.824-3.9102 12.422-9.2578h43.133v7.4062c0 1.0234 0.82812 1.8516 1.8516 1.8516h9.2578c1.0234 0 1.8516-0.82812 1.8516-1.8516v-7.4062h1.8516c4.0859 0 7.4062-3.3242 7.4062-7.4062l0.003906-50.32c2.1562-0.76562 3.7031-2.8242 3.7031-5.2383v-3.7031c0-2.4141-1.5469-4.4727-3.7031-5.2383zm-72.316-2.8203c0.26953-0.71875 0.96484-1.2031 1.7344-1.2031h16.879c0.79688 0 1.5039-0.51172 1.7578-1.2656l0.58594-1.7578c0.5-1.5117 1.9141-2.5312 3.5117-2.5312h8.6602c1.5977 0 3.0078 1.0195 3.5156 2.5312l0.58594 1.7578c0.24609 0.75781 0.95312 1.2656 1.75 1.2656h16.879c0.76953 0 1.4648 0.48438 1.7344 1.2031l0.9375 2.5039h-59.469zm68.613 58.059h-74.074c-1.9883 0-3.8711 0.44922-5.5547 1.2539l-0.003906-6.8086h14.816c4.0859 0 7.4062-3.3242 7.4062-7.4062v-14.816c0-4.0859-3.3242-7.4062-7.4062-7.4062l-14.816-0.003906v-5.5547h79.629zm-79.633-31.48h14.816c2.043 0 3.7031 1.6602 3.7031 3.7031v14.816c0 2.043-1.6602 3.7031-3.7031 3.7031l-14.816-0.003906zm5.5586 53.703c-5.1055 0-9.2578-4.1523-9.2578-9.2578s4.1523-9.2578 9.2578-9.2578c5.1055 0 9.2578 4.1523 9.2578 9.2578 0 5.1016-4.1523 9.2578-9.2578 9.2578zm64.812 0h-5.5547v-5.5547h5.5547zm5.5547-9.2617h-57.406c0-3.625-1.4961-6.9062-3.9023-9.2578h65.016v5.5547c0 2.043-1.6641 3.7031-3.707 3.7031zm7.4102-59.258c0 1.0195-0.83203 1.8516-1.8516 1.8516h-83.336c-1.0195 0-1.8516-0.83203-1.8516-1.8516v-3.7031c0-1.0195 0.83203-1.8516 1.8516-1.8516h83.332c1.0195 0 1.8516 0.83203 1.8516 1.8516z"/>
  <path d="m15.742 78.703c-3.0625 0-5.5547 2.4922-5.5547 5.5547s2.4922 5.5547 5.5547 5.5547 5.5547-2.4922 5.5547-5.5547-2.4922-5.5547-5.5547-5.5547zm0 7.4062c-1.0195 0-1.8516-0.83203-1.8516-1.8516 0-1.0195 0.83203-1.8516 1.8516-1.8516 1.0195 0 1.8516 0.83203 1.8516 1.8516 0 1.0234-0.83203 1.8516-1.8516 1.8516z"/>
  <path d="m37.965 54.629h6.8047l-3.0273 10.602c-0.23438 0.82812 0.12891 1.707 0.87891 2.125s1.6914 0.26562 2.2695-0.37109l18.52-20.371c1.0781-1.1875 0.23047-3.0938-1.375-3.0938h-8.9102l3.1719-6.6055c0.58984-1.2305-0.30469-2.6562-1.668-2.6562h-9.2578c-0.73047 0-1.3945 0.42969-1.6914 1.1016l-7.4062 16.668c-0.54688 1.2227 0.35156 2.6016 1.6914 2.6016zm8.6094-16.664h5.1133l-3.1719 6.6055c-0.58984 1.2266 0.30859 2.6523 1.668 2.6523h7.6641l-10.375 11.414 1.5273-5.3516c0.33984-1.1797-0.54688-2.3594-1.7773-2.3594h-6.4102z"/>
  <path d="m76.852 49.074c4.0859 0 7.4062-3.3242 7.4062-7.4062 0-4.0859-3.3242-7.4062-7.4062-7.4062-4.0859 0-7.4062 3.3242-7.4062 7.4062s3.3203 7.4062 7.4062 7.4062zm0-11.109c2.043 0 3.7031 1.6602 3.7031 3.7031 0 1.3672-0.74609 2.5625-1.8516 3.2031v-1.3516c0-1.0234-0.82812-1.8516-1.8516-1.8516-1.0234 0-1.8516 0.82812-1.8516 1.8516v1.3516c-1.1055-0.64062-1.8516-1.8359-1.8516-3.2031 0-2.043 1.6602-3.7031 3.7031-3.7031z"/>
  <path d="m76.852 67.594c4.0859 0 7.4062-3.3242 7.4062-7.4062 0-4.0859-3.3242-7.4062-7.4062-7.4062-4.0859 0-7.4062 3.3242-7.4062 7.4062s3.3203 7.4062 7.4062 7.4062zm0-11.113c2.043 0 3.7031 1.6602 3.7031 3.7031 0 1.3672-0.74609 2.5625-1.8516 3.2031v-1.3516c0-1.0234-0.82812-1.8516-1.8516-1.8516-1.0234 0-1.8516 0.82812-1.8516 1.8516v1.3516c-1.1055-0.64062-1.8516-1.8359-1.8516-3.2031 0-2.0391 1.6602-3.7031 3.7031-3.7031z"/>
  <path d="m25 49.074c0-3.0625-2.4922-5.5547-5.5547-5.5547s-5.5547 2.4922-5.5547 5.5547c0 2.4141 1.5469 4.4727 3.7031 5.2383v2.168c0 1.0234 0.82812 1.8516 1.8516 1.8516 1.0234 0 1.8516-0.82812 1.8516-1.8516v-2.1719c2.1562-0.76172 3.7031-2.8203 3.7031-5.2344zm-5.5547 1.8516c-1.0195 0-1.8516-0.83203-1.8516-1.8516s0.83203-1.8516 1.8516-1.8516c1.0195 0 1.8516 0.83203 1.8516 1.8516s-0.83203 1.8516-1.8516 1.8516z"/>
 </g>
</svg>